<svg width="159" height="43" viewBox="0 0 159 43" fill="none" xmlns="http://www.w3.org/2000/svg">
<path d="M71.14 23.1308C71.14 24.7908 70.93 26.3008 70.51 27.6608C70.11 29.0008 69.49 30.1608 68.65 31.1408C67.83 32.1208 66.77 32.8708 65.47 33.3908C64.19 33.9108 62.68 34.1708 60.94 34.1708C59.2 34.1708 57.68 33.9108 56.38 33.3908C55.1 32.8508 54.04 32.1008 53.2 31.1408C52.38 30.1608 51.76 28.9908 51.34 27.6308C50.94 26.2708 50.74 24.7608 50.74 23.1008C50.74 20.8808 51.1 18.9508 51.82 17.3108C52.56 15.6708 53.68 14.4008 55.18 13.5008C56.7 12.5808 58.63 12.1208 60.97 12.1208C63.29 12.1208 65.2 12.5808 66.7 13.5008C68.2 14.4008 69.31 15.6808 70.03 17.3408C70.77 18.9808 71.14 20.9108 71.14 23.1308ZM55.51 23.1308C55.51 24.6308 55.7 25.9208 56.08 27.0008C56.46 28.0808 57.05 28.9108 57.85 29.4908C58.65 30.0708 59.68 30.3608 60.94 30.3608C62.24 30.3608 63.28 30.0708 64.06 29.4908C64.86 28.9108 65.44 28.0808 65.8 27.0008C66.18 25.9208 66.37 24.6308 66.37 23.1308C66.37 20.8708 65.95 19.1008 65.11 17.8208C64.27 16.5408 62.89 15.9008 60.97 15.9008C59.69 15.9008 58.65 16.1908 57.85 16.7708C57.05 17.3508 56.46 18.1808 56.08 19.2608C55.7 20.3408 55.51 21.6308 55.51 23.1308ZM101.594 12.4508L96.134 33.8708H90.974L88.064 22.6208C88.004 22.4008 87.924 22.0708 87.824 21.6308C87.744 21.1908 87.644 20.7108 87.524 20.1908C87.424 19.6708 87.334 19.1808 87.254 18.7208C87.174 18.2408 87.114 17.8708 87.074 17.6108C87.054 17.8708 86.994 18.2408 86.894 18.7208C86.814 19.1808 86.724 19.6708 86.624 20.1908C86.524 20.6908 86.424 21.1708 86.324 21.6308C86.224 22.0708 86.144 22.4108 86.084 22.6508L83.204 33.8708H78.044L72.584 12.4508H77.054L79.784 24.1508C79.864 24.4908 79.954 24.9108 80.054 25.4108C80.154 25.8908 80.254 26.4008 80.354 26.9408C80.454 27.4608 80.544 27.9708 80.624 28.4708C80.724 28.9708 80.794 29.4008 80.834 29.7608C80.874 29.3808 80.934 28.9508 81.014 28.4708C81.094 27.9708 81.184 27.4708 81.284 26.9708C81.384 26.4508 81.474 25.9708 81.554 25.5308C81.654 25.0708 81.744 24.7108 81.824 24.4508L84.944 12.4508H89.234L92.354 24.4508C92.414 24.7108 92.494 25.0708 92.594 25.5308C92.694 25.9708 92.794 26.4508 92.894 26.9708C92.994 27.4908 93.084 28.0008 93.164 28.5008C93.244 28.9808 93.304 29.4008 93.344 29.7608C93.404 29.2608 93.494 28.6708 93.614 27.9908C93.734 27.2908 93.864 26.5908 94.004 25.8908C94.164 25.1908 94.294 24.6108 94.394 24.1508L97.124 12.4508H101.594ZM104.288 33.8708V12.4508H108.818V30.1208H117.518V33.8708H104.288Z" fill="#7653FC"/>
<path d="M128.352 32.2708C128.736 32.2708 129.08 32.2468 129.384 32.1988C129.688 32.1348 129.968 32.0628 130.224 31.9828V32.7748C129.968 32.8708 129.68 32.9508 129.36 33.0148C129.04 33.0788 128.68 33.1108 128.28 33.1108C127.544 33.1108 126.952 32.9748 126.504 32.7028C126.056 32.4148 125.72 31.9988 125.496 31.4548C125.288 30.9108 125.184 30.2388 125.184 29.4388V20.9668H123.264V20.3428L125.184 20.1268L125.472 17.0548H126.12V20.1508H130.152V20.9668H126.12V29.3668C126.12 30.3108 126.28 31.0308 126.6 31.5268C126.936 32.0228 127.52 32.2708 128.352 32.2708ZM143.403 26.5108C143.403 27.4708 143.291 28.3508 143.067 29.1508C142.843 29.9508 142.491 30.6468 142.011 31.2388C141.547 31.8308 140.963 32.2948 140.259 32.6308C139.571 32.9508 138.755 33.1108 137.811 33.1108C136.915 33.1108 136.123 32.9508 135.435 32.6308C134.747 32.3108 134.163 31.8548 133.683 31.2628C133.219 30.6708 132.867 29.9748 132.627 29.1748C132.387 28.3748 132.267 27.4868 132.267 26.5108C132.267 25.1508 132.491 23.9828 132.939 23.0068C133.387 22.0148 134.035 21.2548 134.883 20.7268C135.747 20.1828 136.763 19.9108 137.931 19.9108C139.195 19.9108 140.227 20.1988 141.027 20.7748C141.843 21.3508 142.443 22.1348 142.827 23.1268C143.211 24.1188 143.403 25.2468 143.403 26.5108ZM133.227 26.5108C133.227 27.6468 133.395 28.6548 133.731 29.5348C134.067 30.3988 134.571 31.0708 135.243 31.5508C135.931 32.0308 136.787 32.2708 137.811 32.2708C138.883 32.2708 139.755 32.0308 140.427 31.5508C141.115 31.0548 141.619 30.3748 141.939 29.5108C142.275 28.6308 142.443 27.6308 142.443 26.5108C142.443 25.4228 142.291 24.4468 141.987 23.5828C141.683 22.7188 141.203 22.0308 140.547 21.5188C139.891 21.0068 139.019 20.7508 137.931 20.7508C136.395 20.7508 135.227 21.2628 134.427 22.2868C133.627 23.2948 133.227 24.7028 133.227 26.5108ZM152.452 19.9108C154.116 19.9108 155.388 20.4628 156.268 21.5668C157.164 22.6708 157.612 24.2868 157.612 26.4148C157.612 27.8388 157.396 29.0548 156.964 30.0628C156.548 31.0548 155.94 31.8148 155.14 32.3428C154.356 32.8548 153.396 33.1108 152.26 33.1108C151.476 33.1108 150.788 32.9828 150.196 32.7268C149.604 32.4708 149.116 32.1348 148.732 31.7188C148.364 31.3028 148.084 30.8388 147.892 30.3268H147.844C147.876 30.8068 147.892 31.3028 147.892 31.8148C147.892 32.3108 147.892 32.7908 147.892 33.2548V38.4868H146.98V20.1508H147.748L147.844 22.9348H147.892C148.084 22.4068 148.372 21.9188 148.756 21.4708C149.156 21.0068 149.66 20.6308 150.268 20.3428C150.892 20.0548 151.62 19.9108 152.452 19.9108ZM152.38 20.7508C151.388 20.7508 150.564 20.9748 149.908 21.4228C149.252 21.8708 148.756 22.5188 148.42 23.3668C148.084 24.1988 147.908 25.2148 147.892 26.4148V26.5588C147.892 27.8548 148.06 28.9268 148.396 29.7748C148.748 30.6068 149.236 31.2308 149.86 31.6468C150.5 32.0628 151.284 32.2708 152.212 32.2708C153.156 32.2708 153.956 32.0468 154.612 31.5988C155.268 31.1508 155.772 30.4948 156.124 29.6308C156.476 28.7508 156.652 27.6788 156.652 26.4148C156.652 24.5268 156.292 23.1108 155.572 22.1668C154.868 21.2228 153.804 20.7508 152.38 20.7508Z" fill="#7653FC"/>
<path d="M41 1.17933C41 0.528027 40.4622 0 39.7988 0C39.1355 0 38.5977 0.528027 38.5977 1.17933C38.5977 2.45797 37.4609 3.53808 36.1152 3.53808H30.6968C27.6077 1.99433 24.0892 1.17941 20.5 1.17941C16.9108 1.17941 13.3923 1.99433 10.3032 3.53808H4.89942C3.54586 3.53816 2.40234 2.45797 2.40234 1.17933C2.40234 0.528027 1.86454 0 1.20117 0C0.537805 0 0 0.528027 0 1.17933V4.71742C0 6.9054 0.88198 8.96719 2.48386 10.5289C0.856035 13.1417 0 16.0044 0 18.8695C0 28.6238 9.19625 36.5595 20.5 36.5595C31.8037 36.5595 41 28.6238 41 18.8695C41 16.0088 40.1464 13.15 38.523 10.5402C40.0529 9.04628 41 6.98748 41 4.71749V1.17933ZM20.5001 3.53816C22.4136 3.53816 24.3025 3.79636 26.0992 4.29569C24.7576 4.82356 23.5262 5.61796 22.474 6.65255C21.6723 7.44089 21.0131 8.33137 20.5074 9.29355C20.0017 8.33137 19.3425 7.44089 18.5407 6.65255C17.487 5.61638 16.2535 4.8212 14.9094 4.29333C16.7036 3.79557 18.5895 3.53816 20.5001 3.53816ZM20.5 23.1174C20.9492 23.8494 21.5108 24.5074 22.1611 25.069L20.5 28.1451L18.8389 25.0689C19.4892 24.5074 20.0508 23.8493 20.5 23.1174ZM13.293 24.7662C9.98134 24.7662 7.28711 22.1209 7.28711 18.8695C7.28711 15.6181 9.98134 12.9728 13.293 12.9728C16.6046 12.9728 19.2988 15.6181 19.2988 18.8695C19.2988 22.1209 16.6046 24.7662 13.293 24.7662ZM21.7012 18.8695C21.7012 18.7757 21.704 18.6825 21.7084 18.5898C21.7167 18.5334 21.7225 18.4762 21.7223 18.4175V18.395C21.9695 15.3648 24.5582 12.9728 27.707 12.9728C31.0187 12.9728 33.7129 15.6181 33.7129 18.8695C33.7129 22.1209 31.0187 24.7662 27.707 24.7662C24.3954 24.7662 21.7012 22.1209 21.7012 18.8695ZM2.42621 5.24136C3.17278 5.66875 4.0212 5.89683 4.89942 5.89683H10.5791H10.585H10.8906C13.139 5.89683 15.2521 6.75711 16.8407 8.31918C18.1513 9.60796 18.9743 11.2466 19.2204 13.0202C17.8662 11.6973 16.0568 10.8237 14.0459 10.6477C13.956 10.6265 13.8626 10.6142 13.7661 10.6142H8.50286C7.1907 10.6142 5.97455 10.2109 4.97846 9.52698C4.91423 9.45417 4.84104 9.38711 4.7568 9.32964C4.70067 9.29135 4.64205 9.25966 4.58223 9.23191C3.3801 8.25495 2.57227 6.83865 2.42621 5.24136ZM38.5977 18.8695C38.5977 27.3232 30.4791 34.2009 20.5 34.2009C10.5209 34.2009 2.40234 27.3232 2.40234 18.8695C2.40234 16.5099 3.09582 14.1386 4.41687 11.9492C5.36259 12.4579 6.39808 12.7856 7.47769 12.9127C5.88062 14.4162 4.88477 16.5307 4.88477 18.8695C4.88477 23.4215 8.65668 27.1249 13.293 27.1249C14.5513 27.1249 15.7457 26.8516 16.8185 26.3631L19.4387 31.2153C19.6471 31.6011 20.0553 31.8423 20.5 31.8423C20.9447 31.8423 21.3529 31.6011 21.5613 31.2153L24.1815 26.3631C25.2543 26.8516 26.4488 27.1249 27.707 27.1249C32.3433 27.1249 36.1152 23.4215 36.1152 18.8695C36.1152 16.5314 35.1199 14.4174 33.5237 12.9139C34.6228 12.7863 35.6581 12.4539 36.5878 11.9568C37.9058 14.1442 38.5977 16.5129 38.5977 18.8695ZM36.3987 9.25086C36.3475 9.27594 36.2972 9.30353 36.2489 9.33648C36.1712 9.38947 36.1028 9.45056 36.042 9.51668C35.0456 10.2067 33.8271 10.6141 32.5117 10.6141H27.2484C27.1547 10.6141 27.0639 10.6256 26.9764 10.6456C24.9648 10.8165 23.1538 11.6853 21.7964 13.004C22.0453 11.2366 22.8673 9.60395 24.1739 8.3191C25.7625 6.75704 27.8756 5.89675 30.1239 5.89675H30.3957C30.3984 5.89675 30.401 5.89699 30.4037 5.89699C30.406 5.89699 30.4083 5.89675 30.4106 5.89675H36.1152C36.9885 5.89675 37.8315 5.67087 38.5732 5.24765C38.425 6.85296 37.6096 8.2746 36.3987 9.25086Z" fill="#7653FC"/>
<path d="M13.5 16.1189L14.5103 18.7099H17.7798L15.1347 20.3112L16.145 22.9022L13.5 21.3008L10.855 22.9022L11.8653 20.3112L9.22025 18.7099H12.4897L13.5 16.1189Z" fill="#7653FC"/>
<path d="M27.5 16.1189L28.5103 18.7099H31.7798L29.1347 20.3112L30.145 22.9022L27.5 21.3008L24.855 22.9022L25.8653 20.3112L23.2202 18.7099H26.4897L27.5 16.1189Z" fill="#7653FC"/>
</svg>
